<svg width="13" height="15" viewBox="0 0 13 15" fill="none" xmlns="http://www.w3.org/2000/svg">
<path id="Vector" d="M2.57143 0.5C2.45143 0.5 2.34857 0.517779 2.24571 0.553338C1.57714 0.695574 1.04571 1.24674 0.908571 1.94014C0.857143 2.04682 0.857143 2.15349 0.857143 2.27795V12.0567C0.857143 13.5324 2.00571 14.7236 3.42857 14.7236H12.8571V12.9456H3.42857C2.94857 12.9456 2.57143 12.5545 2.57143 12.0567C2.57143 11.5588 2.94857 11.1677 3.42857 11.1677H12.8571V1.38897C12.8571 0.891149 12.48 0.5 12 0.5H11.1429V5.83385L9.42857 4.0559L7.71429 5.83385V0.5H2.57143Z" fill="black"/>
</svg>
